{"accessors" : [{"bufferView" : 0, "byteOffset" : 0, "componentType" : 5123, "count" : 2880, "type" : "SCALAR", "max" : [558], "min" : [0]}, {"bufferView" : 1, "byteOffset" : 0, "componentType" : 5126, "count" : 559, "type" : "VEC3", "max" : [633.788452148438, 633.788452148438, 633.788452148438], "min" : [-633.788452148438, -633.788452148438, -633.788452148438]}, {"bufferView" : 1, "byteOffset" : 12, "componentType" : 5126, "count" : 559, "type" : "VEC3", "max" : [1.00000441074371, 1.00000441074371, 1.00000441074371], "min" : [-1.00000441074371, -1.00000441074371, -1.00000441074371]}, {"bufferView" : 1, "byteOffset" : 24, "componentType" : 5126, "count" : 559, "type" : "VEC2", "max" : [1.00000023841858, 1.19209289550781E-07], "min" : [0, -1]}, {"bufferView" : 0, "byteOffset" : 5760, "componentType" : 5123, "count" : 77418, "type" : "SCALAR", "max" : [17419], "min" : [0]}, {"bufferView" : 2, "byteOffset" : 0, "componentType" : 5126, "count" : 17420, "type" : "VEC3", "max" : [34.0825843811035, 50.7870178222656, 72.518310546875], "min" : [-34.0825843811035, -51.2587623596191, 12.4584426879883]}, {"bufferView" : 2, "byteOffset" : 12, "componentType" : 5126, "count" : 17420, "type" : "VEC3", "max" : [0.999959766864777, 0.999952077865601, 0.999789476394653], "min" : [-0.999959766864777, -0.999936580657959, -0.999948799610138]}, {"bufferView" : 2, "byteOffset" : 24, "componentType" : 5126, "count" : 17420, "type" : "VEC2", "max" : [1, 0], "min" : [0, -1]}, {"bufferView" : 0, "byteOffset" : 160596, "componentType" : 5123, "count" : 94899, "type" : "SCALAR", "max" : [23794], "min" : [0]}, {"bufferView" : 3, "byteOffset" : 0, "componentType" : 5126, "count" : 23795, "type" : "VEC3", "max" : [50.7776145935059, 72.1877670288086, 69.2884368896484], "min" : [-50.7776145935059, -72.1877593994141, -0.187660217285156]}, {"bufferView" : 3, "byteOffset" : 12, "componentType" : 5126, "count" : 23795, "type" : "VEC3", "max" : [0.999935805797577, 0.999968349933624, 0.99996429681778], "min" : [-0.999935865402222, -0.999926269054413, -1.00000143051147]}, {"bufferView" : 3, "byteOffset" : 24, "componentType" : 5126, "count" : 23795, "type" : "VEC2", "max" : [1, 0], "min" : [0, -1]}, {"bufferView" : 0, "byteOffset" : 350396, "componentType" : 5123, "count" : 2280, "type" : "SCALAR", "max" : [497], "min" : [0]}, {"bufferView" : 4, "byteOffset" : 0, "componentType" : 5126, "count" : 498, "type" : "VEC3", "max" : [12.4514808654785, -37.1748390197754, 65.9339065551758], "min" : [-12.1845712661743, -43.3480987548828, 57.4687728881836]}, {"bufferView" : 4, "byteOffset" : 12, "componentType" : 5126, "count" : 498, "type" : "VEC3", "max" : [0.995873630046844, 0.999185860157013, 0.999994874000549], "min" : [-0.995873630046844, -0.999185919761658, -0.999994814395905]}, {"bufferView" : 4, "byteOffset" : 24, "componentType" : 5126, "count" : 498, "type" : "VEC2", "max" : [1, 0], "min" : [0, -1]}, {"bufferView" : 0, "byteOffset" : 354956, "componentType" : 5123, "count" : 378, "type" : "SCALAR", "max" : [127], "min" : [0]}, {"bufferView" : 5, "byteOffset" : 0, "componentType" : 5126, "count" : 128, "type" : "VEC3", "max" : [137.809020996094, 137.809020996094, 0], "min" : [-137.809020996094, -137.809020996094, 0]}, {"bufferView" : 5, "byteOffset" : 12, "componentType" : 5126, "count" : 128, "type" : "VEC3", "max" : [0, 0, 1.00000441074371], "min" : [0, 0, 1.00000441074371]}, {"bufferView" : 5, "byteOffset" : 24, "componentType" : 5126, "count" : 128, "type" : "VEC2", "max" : [1, 0], "min" : [0, -1]}, {"bufferView" : 0, "byteOffset" : 355712, "componentType" : 5123, "count" : 2880, "type" : "SCALAR", "max" : [558], "min" : [0]}, {"bufferView" : 6, "byteOffset" : 0, "componentType" : 5126, "count" : 559, "type" : "VEC3", "max" : [69.1720428466797, 43.7931976318359, 69.1720581054688], "min" : [-69.1720733642578, -50.2453193664551, -69.1720581054688]}, {"bufferView" : 6, "byteOffset" : 12, "componentType" : 5126, "count" : 559, "type" : "VEC3", "max" : [0.999972462654114, 1.00000441074371, 0.999982833862305], "min" : [-0.999972462654114, -1.00000441074371, -0.999982833862305]}, {"bufferView" : 6, "byteOffset" : 24, "componentType" : 5126, "count" : 559, "type" : "VEC2", "max" : [1.00000023841858, 1.19209289550781E-07], "min" : [0, -1]}, {"bufferView" : 0, "byteOffset" : 361472, "componentType" : 5123, "count" : 24, "type" : "SCALAR", "max" : [8], "min" : [0]}, {"bufferView" : 7, "byteOffset" : 0, "componentType" : 5126, "count" : 9, "type" : "VEC3", "max" : [-141.396484375, 1440.98999023438, 6025.6982421875], "min" : [-222.06298828125, 1368.3837890625, 6008.91015625]}, {"bufferView" : 7, "byteOffset" : 12, "componentType" : 5126, "count" : 9, "type" : "VEC3", "max" : [0.0793639197945595, 0.402656674385071, 0.989201664924622], "min" : [-0.38039767742157, -0.220294669270515, 0.898207426071167]}, {"bufferView" : 7, "byteOffset" : 24, "componentType" : 5126, "count" : 9, "type" : "VEC2", "max" : [1.03138029575348, -0.0985609591007233], "min" : [-0.0338491722941399, -0.988590776920319]}, {"bufferView" : 7, "byteOffset" : 32, "componentType" : 5126, "count" : 9, "type" : "VEC2", "max" : [0.997509002685547, -0.331093996763229], "min" : [0.00276467995718122, -0.998435020446777]}], "asset" : {"generator" : "Aspose.3D 20.1", "version" : "2.0"}, "buffers" : [{"uri" : "buffer.bin", "byteLength" : 1819784}], "bufferViews" : [{"buffer" : 0, "byteOffset" : 0, "byteLength" : 361520, "target" : 34963}, {"buffer" : 0, "byteOffset" : 361524, "byteLength" : 17888, "byteStride" : 32, "target" : 34962}, {"buffer" : 0, "byteOffset" : 379416, "byteLength" : 557440, "byteStride" : 32, "target" : 34962}, {"buffer" : 0, "byteOffset" : 936860, "byteLength" : 761440, "byteStride" : 32, "target" : 34962}, {"buffer" : 0, "byteOffset" : 1698304, "byteLength" : 15936, "byteStride" : 32, "target" : 34962}, {"buffer" : 0, "byteOffset" : 1714244, "byteLength" : 4096, "byteStride" : 32, "target" : 34962}, {"buffer" : 0, "byteOffset" : 1718344, "byteLength" : 17888, "byteStride" : 32, "target" : 34962}, {"buffer" : 0, "byteOffset" : 1736236, "byteLength" : 360, "byteStride" : 40, "target" : 34962}, {"buffer" : 0, "byteOffset" : 1736600, "byteLength" : 83182}], "images" : [{"uri" : "C:\\Users\\RE\\Desktop\\ants\\texture__green_leaf_bokeh_by_itti-d3gczmu.jpg"}, {"mimeType" : "application/octet-stream", "bufferView" : 8}], "materials" : [{"pbrMetallicRoughness" : {"baseColorFactor" : [0.0431372560560703, 0.00392156885936856, 0, 1], "metallicFactor" : 0, "roughnessFactor" : 0}, "emissiveFactor" : [0, 0, 0], "alphaMode" : "OPAQUE", "doubleSided" : false}, {"pbrMetallicRoughness" : {"baseColorFactor" : [0.00392156885936856, 0, 0, 1], "metallicFactor" : 0, "roughnessFactor" : 0}, "emissiveFactor" : [0, 0, 0], "alphaMode" : "OPAQUE", "doubleSided" : false}, {"pbrMetallicRoughness" : {"baseColorFactor" : [0.00392156885936856, 0, 0, 1], "metallicFactor" : 0, "roughnessFactor" : 0}, "emissiveFactor" : [0, 0, 0], "alphaMode" : "OPAQUE", "doubleSided" : false}, {"pbrMetallicRoughness" : {"baseColorFactor" : [0.588235318660736, 0.588235318660736, 0.588235318660736, 1], "metallicFactor" : 0, "roughnessFactor" : 0}, "emissiveFactor" : [0, 0, 0], "alphaMode" : "OPAQUE", "doubleSided" : false}, {"pbrMetallicRoughness" : {"baseColorFactor" : [0.38039219379425, 0.490196108818054, 0.627451002597809, 1], "baseColorTexture" : {"index" : 0, "texCoord" : 0}, "metallicFactor" : 0, "roughnessFactor" : 0}, "emissiveFactor" : [0, 0, 0], "alphaMode" : "OPAQUE", "doubleSided" : false}, {"pbrMetallicRoughness" : {"baseColorFactor" : [0.588235318660736, 0.588235318660736, 0.588235318660736, 1], "baseColorTexture" : {"index" : 1, "texCoord" : 0}, "metallicFactor" : 0, "roughnessFactor" : 0}, "emissiveFactor" : [0, 0, 0], "alphaMode" : "OPAQUE", "doubleSided" : false}], "meshes" : [{"primitives" : [{"attributes" : {"POSITION" : 1, "NORMAL" : 2, "TEXCOORD_0" : 3}, "indices" : 0, "mode" : 4}]}, {"primitives" : [{"attributes" : {"POSITION" : 5, "NORMAL" : 6, "TEXCOORD_0" : 7}, "indices" : 4, "material" : 0, "mode" : 4}, {"attributes" : {"POSITION" : 9, "NORMAL" : 10, "TEXCOORD_0" : 11}, "indices" : 8, "material" : 1, "mode" : 4}, {"attributes" : {"POSITION" : 13, "NORMAL" : 14, "TEXCOORD_0" : 15}, "indices" : 12, "material" : 2, "mode" : 4}]}, {"primitives" : [{"attributes" : {"POSITION" : 17, "NORMAL" : 18, "TEXCOORD_0" : 19}, "indices" : 16, "material" : 3, "mode" : 4}]}, {"primitives" : [{"attributes" : {"POSITION" : 21, "NORMAL" : 22, "TEXCOORD_0" : 23}, "indices" : 20, "material" : 4, "mode" : 4}]}, {"primitives" : [{"attributes" : {"POSITION" : 25, "NORMAL" : 26, "TEXCOORD_0" : 27, "TEXCOORD_1" : 28}, "indices" : 24, "material" : 5, "mode" : 4}]}], "nodes" : [{"matrix" : [1, 0, 0, 0, 0, 2.22044604925031E-16, -1, 0, 0, 1, 2.22044604925031E-16, 0, -79.0222244262695, 13.6013011932373, 22.5777778625488, 1], "mesh" : 0, "name" : "Sphere01"}, {"matrix" : [1, 0, 0, 0, 0, 2.22044604925031E-16, -1, 0, 0, 1, 2.22044604925031E-16, 0, 113.888442993164, 6.5651912689209, -2380.78125, 1], "mesh" : 1, "name" : "anthighrez"}, {"matrix" : [1.68761992454529, 0, 0, 0, 0, 3.7472689940927E-16, -1.68761992454529, 0, 0, 1.68761992454529, 3.7472689940927E-16, 0, -9.15909957885742, -2.32175064086914, -2368.70532226563, 1], "mesh" : 2, "name" : "Circle001"}, {"matrix" : [-1.46628608167837E-07, -2.3719548524084E-16, 0.89999997615813, 0, -3.93402501573766E-08, 0.899999976158141, -6.17214482151761E-15, 0, -0.89999997615813, -3.93402501573771E-08, -1.46628608167837E-07, 0, 9.84805956250057E-05, 45.5602226257324, -2266.77978515625, 1], "mesh" : 3, "name" : "Sphere002"}, {"matrix" : [1.6112672163301, -0.557030222903709, -1.20335157289096, 0, -1.20335179435305, 0.181259948086731, -1.69517255903747, 0, 0.557030041493013, 2.00284345097826, -0.181260484869734, 0, -1365.2172065233, -12394.200140477, 3260.2173432495, 1], "mesh" : 4, "name" : "VP_Free_Birch_01_"}, {"children" : [4], "matrix" : [-0.0299126644261625, 0.196697791524881, 0.980007760844864, 0, -0.196697982351647, 0.960117051667647, -0.198709308424162, 0, -0.980007960902277, -0.198709497796399, 0.00997040073816207, 0, -4.70355987548828, 57.0438385009766, -2389.88500976563, 1], "name" : "Bone016"}], "samplers" : [{"magFilter" : 9729, "minFilter" : 9729, "wrapS" : 10497, "wrapT" : 10497}, {"magFilter" : 9729, "minFilter" : 9729, "wrapS" : 10497, "wrapT" : 10497}], "scene" : 0, "scenes" : [{"nodes" : [0, 1, 2, 3, 5]}], "textures" : [{"sampler" : 0, "source" : 0}, {"sampler" : 1, "source" : 1}]}